<?xml version="1.0" standalone="no"?>
<!DOCTYPE svg PUBLIC "-//W3C//DTD SVG 20010904//EN" "http://www.w3.org/TR/2001/REC-SVG-20010904/DTD/svg10.dtd">
<svg version="1.0" xmlns="http://www.w3.org/2000/svg" width="512" height="512" viewBox="0 0 512 512"
  preserveAspectRatio="xMidYMid meet">
  <metadata>
    Created by potrace 1.14, written by Peter Selinger 2001-2017
  </metadata>
  <g transform="translate(0,512) scale(0.100000,-0.100000)" fill="#000000" stroke="none">
    <path d="M2627 5023 c-39 -45 -155 -241 -217 -368 -68 -140 -117 -265 -144
-373 -34 -133 -41 -190 -40 -342 1 -191 33 -304 129 -450 76 -115 209 -234
338 -300 84 -44 151 -167 156 -285 3 -74 -19 -143 -65 -207 l-34 -48 63 -1
c34 -1 65 -1 70 0 4 0 7 -2 7 -7 0 -4 -42 -17 -92 -29 -76 -17 -117 -20 -223
-17 -234 6 -410 -46 -615 -180 -117 -77 -290 -259 -380 -400 -203 -318 -207
-324 -334 -449 -228 -225 -492 -332 -891 -361 -232 -18 -274 -23 -322 -37 -27
-9 -33 -16 -33 -38 0 -73 155 -224 358 -350 388 -241 824 -322 1130 -209 300
110 519 407 631 854 12 45 22 91 24 102 2 12 6 24 10 28 3 4 4 -4 2 -17 -17
-86 -23 -482 -12 -686 16 -278 52 -415 121 -468 59 -45 116 -42 156 8 16 19
15 26 -13 106 -36 102 -47 236 -27 333 19 98 58 163 164 272 53 54 107 117
120 140 33 56 63 149 71 221 4 33 9 62 11 64 2 2 30 -4 61 -13 49 -15 71 -19
124 -25 3 -1 6 -7 6 -13 1 -35 15 -195 18 -208 2 -8 7 -35 10 -60 9 -65 31
-180 59 -300 22 -95 32 -148 42 -220 8 -55 15 -203 18 -345 2 -86 8 -159 14
-171 21 -39 79 -58 179 -59 57 0 96 4 104 12 18 18 12 80 -14 163 -57 177 -67
251 -62 440 5 168 8 186 43 352 l27 123 105 1 c58 1 119 6 135 11 l30 10 1
-171 c1 -224 9 -305 50 -516 69 -348 177 -519 277 -440 46 37 44 69 -12 183
-70 140 -74 192 -35 417 2 14 7 41 10 60 3 19 7 42 9 50 2 8 7 31 10 50 3 19
30 163 60 320 30 157 56 297 59 312 21 119 42 199 70 261 68 151 131 347 165
512 l18 88 54 30 c30 16 86 49 126 72 199 118 440 222 561 241 23 4 42 9 42
12 0 3 -11 19 -24 36 -32 43 -52 84 -80 163 -22 61 -27 81 -42 148 -7 29 -31
191 -38 253 -12 105 -34 229 -60 342 -8 36 -18 80 -21 99 -3 19 -7 37 -9 40
-2 3 -7 35 -11 71 -4 36 -8 67 -10 70 -1 3 -6 36 -10 73 -3 37 -8 77 -10 87
-25 128 -25 679 -1 785 28 126 28 139 -2 143 -27 4 -113 -34 -179 -79 -194
-132 -402 -348 -571 -593 -18 -26 -37 -44 -43 -40 -13 8 -289 7 -371 -1 l-56
-6 -149 149 c-213 213 -420 377 -664 525 -60 37 -111 67 -113 67 -1 0 -10 -8
-19 -17z" />
  </g>
</svg>