<svg viewBox="0 0 24 23">
  <path
    d="M12 0.0175781C14.1696 0.0175781 16.1763 0.439455 18.0201 1.28321C19.8638 2.12696 21.3214 3.27429 22.3929 4.72519C23.4643 6.17609 24 7.75869 24 9.47299C24 11.1873 23.4643 12.7721 22.3929 14.2275C21.3214 15.6828 19.8661 16.8324 18.0268 17.6762C16.1875 18.5199 14.1786 18.9418 12 18.9418C11.3125 18.9418 10.6027 18.8927 9.87054 18.7945C6.69196 20.9998 5 22.1159 4.79464 22.1427C4.69643 22.1784 4.60268 22.174 4.51339 22.1293C4.47768 22.1025 4.45089 22.0668 4.43304 22.0222C4.41518 21.9775 4.40625 21.9373 4.40625 21.9016V21.8481C4.45982 21.4998 4.86607 20.0489 5.625 17.4954C3.90179 16.6382 2.53348 15.502 1.52009 14.0869C0.506696 12.6717 0 11.1337 0 9.47299C0 7.75869 0.535714 6.17609 1.60714 4.72519C2.67857 3.27429 4.13616 2.12696 5.97991 1.28321C7.82366 0.439455 9.83036 0.0175781 12 0.0175781Z"
    fill="#3C1D1E" />
</svg>